# xmcd
#
# Track frame offsets: 
#        150
#        16355
#        36110
#        54632
#        75385
#        92837
#        115062
#        142137
#        162327
#        182232
#        202662
#        221755
#
# Disc length: 3323 seconds
#
# Revision: 37
# Processed by: cddbd v1.5.2PL0 Copyright (c) Steve Scherf et al.
# Submitted via: ExactAudioCopy v1.3
#
DISCID=a10cf90c
DTITLE=Lifehouse - No Name Face
DYEAR=2000
DGENRE=Rock
TTITLE0=Hanging By A Moment
TTITLE1=Sick Cycle Carousel
TTITLE2=Unknown
TTITLE3=Somebody Else's Song
TTITLE4=Trying
TTITLE5=Only One
TTITLE6=Simon
TTITLE7=Cling And Clatter
TTITLE8=Breathing
TTITLE9=Quasimodo
TTITLE10=Somewhere In Between
TTITLE11=Everything
EXTD=YEAR: 2000
EXTT0=
EXTT1=
EXTT2=
EXTT3=
EXTT4=
EXTT5=
EXTT6=
EXTT7=
EXTT8=
EXTT9=
EXTT10=
EXTT11=
PLAYORDER=
